<svg width="50" height="50" viewBox="0 0 50 50" fill="none" xmlns="http://www.w3.org/2000/svg">
<path fill-rule="evenodd" clip-rule="evenodd" d="M25 49C38.2548 49 49 38.2548 49 25C49 11.7452 38.2548 1 25 1C11.7452 1 1 11.7452 1 25C1 38.2548 11.7452 49 25 49ZM25 50C38.8071 50 50 38.8071 50 25C50 11.1929 38.8071 0 25 0C11.1929 0 0 11.1929 0 25C0 38.8071 11.1929 50 25 50Z" fill="#1F191D"/>
<path fill-rule="evenodd" clip-rule="evenodd" d="M27.3635 16.6567C27.5531 16.8574 27.5441 17.1739 27.3433 17.3635L18.7282 25.5L27.3433 33.6365C27.5441 33.8261 27.5531 34.1426 27.3635 34.3433C27.1739 34.5441 26.8574 34.5531 26.6567 34.3635L17.6567 25.8635C17.5567 25.7691 17.5 25.6376 17.5 25.5C17.5 25.3624 17.5567 25.2309 17.6567 25.1365L26.6567 16.6365C26.8574 16.4469 27.1739 16.4559 27.3635 16.6567Z" fill="#1F191D"/>
</svg>
