<svg width="49" height="69" viewBox="0 0 49 69" fill="none" xmlns="http://www.w3.org/2000/svg">
<g id="icon / css">
<g id="Vector">
<path d="M24.4436 68.5L4.76962 63.0383L0.385254 13.8636H48.5609L44.172 63.0307L24.4436 68.5Z" fill="#264DE4"/>
<path d="M40.4146 59.8999L44.165 17.8843H24.4731V64.3194L40.4146 59.8999Z" fill="#2965F1"/>
<path d="M10.4362 36.1225L10.9767 42.1536H24.4731V36.1225H10.4362ZM9.35 23.9156L9.89821 29.9466H24.4731V23.9156H9.35ZM24.4731 51.7859L24.4466 51.7929L17.7299 49.9792L17.3005 45.1692H11.2462L12.091 54.6389L24.4453 58.0683L24.4731 58.0608V51.7859Z" fill="#EBEBEB"/>
<path d="M11.7232 0.5H19.0276V3.55472H14.7779V6.60944H19.028V9.66397H11.7232V0.5ZM20.4887 0.5H27.7933V3.15626H23.5434V3.68748H27.7933V9.79692H20.4889V7.00752H24.7388V6.47631H20.4885L20.4887 0.5ZM29.2544 0.5H36.559V3.15626H32.3091V3.68748H36.559V9.79692H29.2544V7.00752H33.5043V6.47631H29.2546V0.5H29.2544Z" fill="#1F191D"/>
<path d="M38.4714 36.1225L39.5601 23.9156H24.4523V29.9466H32.9506L32.4018 36.1225H24.4523V42.1536H31.8789L31.1787 49.9755L24.4521 51.791V58.0655L36.8162 54.6389L38.3243 37.7421L38.4714 36.1225Z" fill="white"/>
</g>
</g>
</svg>
