<svg width="47" height="70" viewBox="0 0 47 70" fill="none" xmlns="http://www.w3.org/2000/svg">
<g id="icon / figma">
<g id="Vector">
<path d="M46.5 35C46.5 41.3513 41.3513 46.5 35 46.5C28.6487 46.5 23.5 41.3513 23.5 35C23.5 28.6487 28.6487 23.5 35 23.5C41.3513 23.5 46.5 28.6487 46.5 35Z" fill="#1ABCFE"/>
<path d="M0.5 12C0.5 5.64873 5.64873 0.5 12 0.5H23.5V23.5H12C5.64873 23.5 0.5 18.3513 0.5 12Z" fill="#F24E1E"/>
<path d="M46.5 12C46.5 5.64873 41.3513 0.5 35 0.5H23.5V23.5H35C41.3513 23.5 46.5 18.3513 46.5 12Z" fill="#FF7262"/>
<path d="M0.5 35C0.5 28.6487 5.64873 23.5 12 23.5H23.5V46.5H12C5.64873 46.5 0.5 41.3513 0.5 35Z" fill="#A259FF"/>
<path d="M0.5 58C0.5 51.6487 5.64873 46.5 12 46.5H23.5V58C23.5 64.3513 18.3513 69.5 12 69.5C5.64873 69.5 0.5 64.3513 0.5 58Z" fill="#0ACF83"/>
</g>
</g>
</svg>
