<svg width="49" height="69" viewBox="0 0 49 69" fill="none" xmlns="http://www.w3.org/2000/svg">
<g id="icon / html">
<g id="Vector">
<path d="M48.6147 13.9158L44.2369 62.9587L24.5584 68.4141L4.93408 62.9662L0.560791 13.9158H48.6147Z" fill="#E44D26"/>
<path d="M24.5878 64.2441L40.489 59.8358L44.23 17.9263H24.5878V64.2441Z" fill="#F16529"/>
<path d="M16.0774 29.9582H24.5878V23.9423H9.50289L11.1255 42.1343H24.5878V36.1185H16.6273L16.0774 29.9582ZM17.4333 45.1423H11.3943L12.237 54.5881L24.5601 58.0088L24.5878 58.0013V51.7423L24.5614 51.7493L17.8616 49.9402L17.4333 45.1423Z" fill="#EBEBEB"/>
<path d="M5.03165 0.585938H8.08882V3.60638H10.8855V0.585938H13.9429V9.7326H10.8857V6.66977H8.08901V9.7326H5.03184L5.03165 0.585938ZM17.963 3.61919H15.272V0.585938H23.7134V3.61919H21.0207V9.7326H17.9635L17.963 3.61919ZM25.053 0.585938H28.2407L30.2016 3.79983L32.1606 0.585938H35.3497V9.7326H32.3049V5.19901L30.2016 8.45115H30.1489L28.0443 5.19901V9.7326H25.053V0.585938ZM36.8711 0.585938H39.9292V6.70933H44.2285V9.7326H36.8709L36.8711 0.585938Z" fill="#1F191D"/>
<path d="M24.5671 42.1343H31.9749L31.2764 49.9364L24.5669 51.7474V58.006L36.8997 54.5881L38.404 37.7339L38.5508 36.1185H24.5671V42.1343ZM24.5671 29.9582H39.0981L39.6367 23.9423H24.5671V29.9582Z" fill="white"/>
</g>
</g>
</svg>
