<svg width="83" height="58" viewBox="0 0 83 58" fill="none" xmlns="http://www.w3.org/2000/svg">
<g id="icon / ps">
<g id="Vector">
<path d="M0.5 57.3446V0H21.9852C26.4288 0 30.2579 0.846518 33.4724 2.53955C36.6869 4.17797 39.1687 6.55367 40.9178 9.66667C42.6669 12.7797 43.5414 16.4934 43.5414 20.8079C43.5414 25.0678 42.6669 28.7542 40.9178 31.8672C39.1687 34.9802 36.6869 37.3832 33.4724 39.0763C30.2579 40.7147 26.4288 41.5339 21.9852 41.5339H6.88175L11.9872 35.5537V57.3446H0.5ZM11.9872 37.0283L6.88175 30.7203H21.3471C24.8925 30.7203 27.5397 29.8465 29.2888 28.0989C31.0379 26.3512 31.9124 23.9209 31.9124 20.8079C31.9124 17.6403 31.0379 15.1827 29.2888 13.435C27.5397 11.6874 24.8925 10.8136 21.3471 10.8136H6.88175L11.9872 4.50565V37.0283Z" fill="#31A8FF"/>
<path d="M64.4893 58C61.2275 58 58.0839 57.5631 55.0585 56.6893C52.0803 55.7608 49.7167 54.6139 47.9676 53.2486L51.6549 44.0734C53.4039 45.3296 55.4603 46.3672 57.8239 47.1864C60.2348 47.951 62.5984 48.3333 64.9147 48.3333C67.4674 48.3333 69.2638 47.9783 70.3038 47.2684C71.391 46.5584 71.9346 45.5753 71.9346 44.3192C71.9346 43.2815 71.5092 42.5169 70.6583 42.0254C69.8547 41.4793 68.7674 41.0697 67.3965 40.7966C66.0256 40.5235 64.5129 40.2505 62.8584 39.9774C61.2511 39.7043 59.6202 39.3493 57.9657 38.9124C56.3112 38.4209 54.7985 37.7109 53.4276 36.7825C52.0567 35.8541 50.9458 34.5979 50.0949 33.0141C49.2912 31.4303 48.8894 29.3823 48.8894 26.8701C48.8894 24.0847 49.5749 21.6271 50.9458 19.4972C52.3639 17.3672 54.3966 15.7015 57.0439 14.5C59.6911 13.2439 62.8584 12.6158 66.5456 12.6158C69.1456 12.6158 71.7928 12.9435 74.4874 13.5989C77.1819 14.2542 79.4273 15.21 81.2236 16.4661L77.5364 25.5593C75.6928 24.3032 73.8255 23.4567 71.9346 23.0198C70.091 22.5282 68.2947 22.2825 66.5456 22.2825C64.0875 22.2825 62.2911 22.6648 61.1566 23.4294C60.022 24.194 59.4548 25.177 59.4548 26.3785C59.4548 27.4708 59.8566 28.29 60.6602 28.8362C61.5111 29.3823 62.622 29.8192 63.9929 30.1469C65.3638 30.4746 66.8529 30.775 68.4601 31.048C70.1147 31.2665 71.7692 31.6215 73.4237 32.113C75.0783 32.6045 76.5673 33.3145 77.891 34.2429C79.2618 35.1168 80.3727 36.3456 81.2236 37.9294C82.0745 39.4586 82.5 41.4793 82.5 43.9915C82.5 46.7222 81.7909 49.1525 80.3727 51.2825C78.9546 53.3578 76.8982 54.9962 74.2037 56.1977C71.5565 57.3992 68.3183 58 64.4893 58Z" fill="#31A8FF"/>
</g>
</g>
</svg>
