<svg width="53" height="53" viewBox="0 0 53 53" fill="none" xmlns="http://www.w3.org/2000/svg">
<g clip-path="url(#clip0_8233_63)">
<path d="M40.5781 0H12.4219C5.56146 0 0 5.56146 0 12.4219V40.5781C0 47.4385 5.56146 53 12.4219 53H40.5781C47.4385 53 53 47.4385 53 40.5781V12.4219C53 5.56146 47.4385 0 40.5781 0Z" fill="url(#paint0_linear_8233_63)"/>
<path d="M11.9956 26.2201C19.722 22.8546 24.873 20.6356 27.4484 19.5636C34.8105 16.5025 36.3383 15.9708 37.3362 15.9528C37.5557 15.9493 38.0443 16.0035 38.3631 16.2613C38.6281 16.4787 38.7026 16.7726 38.7399 16.979C38.773 17.1853 38.8186 17.6552 38.7813 18.0221C38.3838 22.2124 36.6572 32.3809 35.7794 37.0743C35.4108 39.0602 34.678 39.726 33.9699 39.791C32.4296 39.9326 31.2619 38.7741 29.7713 37.7973C27.4401 36.2681 26.1234 35.3166 23.8585 33.8248C21.2416 32.1006 22.9393 31.1528 24.4299 29.6042C24.8191 29.1989 31.6015 23.0314 31.7298 22.472C31.7464 22.402 31.763 22.1412 31.6056 22.0037C31.4524 21.8658 31.2247 21.913 31.059 21.9503C30.823 22.0033 27.1006 24.4661 19.8794 29.3384C18.8235 30.0647 17.867 30.4187 17.0058 30.4001C16.0617 30.3798 14.2398 29.8651 12.8858 29.4254C11.2296 28.8858 9.90873 28.6005 10.0247 27.6842C10.0826 27.2072 10.741 26.719 11.9956 26.2201Z" fill="white"/>
</g>
<defs>
<linearGradient id="paint0_linear_8233_63" x1="26.4619" y1="0.0759408" x2="26.4619" y2="52.9999" gradientUnits="userSpaceOnUse">
<stop stop-color="#2AABEE"/>
<stop offset="1" stop-color="#229ED9"/>
</linearGradient>
<clipPath id="clip0_8233_63">
<rect width="53" height="53" fill="white"/>
</clipPath>
</defs>
</svg>
