<svg width="63" height="70" viewBox="0 0 63 70" fill="none" xmlns="http://www.w3.org/2000/svg">
<g id="icon / tilda">
<g id="Vector">
<path d="M27.5 21L36.5 25.5366V69H27.5V21Z" fill="#1F191D"/>
<path d="M10.183 11.1242C7.61907 13.5792 8.01518 19.5908 8.01518 19.5908H0.500032C0.500032 19.5908 0.465493 12.0433 2.66786 7.98329C3.81218 5.87376 5.44415 4.16644 7.43706 2.81269C10.5225 0.716832 14.411 0.736226 17.9872 1.39137C19.9883 1.75795 22.901 3.111 22.901 3.111L40.2436 11.7092C40.2436 11.7092 43.5772 13.3995 45.88 13.4288C47.7286 13.4523 48.8954 13.3281 50.5047 12.4257C51.9636 11.6075 52.652 10.8262 53.5396 9.41632C55.0826 6.96566 54.6958 2.10788 54.6958 2.10788H62.5L62.0664 7.97159C62.0664 7.97159 61.8675 10.86 61.1993 12.5572C60.7308 13.7472 60.0431 15.1367 59.465 15.7099L56.8636 18.2894C56.8636 18.2894 53.9747 19.8968 51.9499 20.4389C47.5246 21.6238 42.6331 20.7352 40.2436 19.5908C31.947 15.6174 22.6119 10.8493 18.9989 9.41632C15.3858 7.98329 12.8069 8.6118 10.183 11.1242Z" fill="#1F191D"/>
<path d="M27.5 21L27.7251 20.5535L27 20.188V21H27.5ZM36.5 25.5366H37V25.2287L36.7251 25.0901L36.5 25.5366ZM36.5 69V69.5H37V69H36.5ZM27.5 69H27V69.5H27.5V69ZM8.01518 19.5908V20.0908C8.1535 20.0908 8.28564 20.0335 8.38017 19.9326C8.47471 19.8316 8.52319 19.696 8.5141 19.5579L8.01518 19.5908ZM10.183 11.1242L9.83718 10.7631L9.83718 10.7631L10.183 11.1242ZM18.9989 9.41632L19.1832 8.95154L19.1832 8.95154L18.9989 9.41632ZM40.2436 19.5908L40.0276 20.0418L40.0276 20.0418L40.2436 19.5908ZM62.5 2.10788L62.9986 2.14475C63.0089 2.00612 62.961 1.86947 62.8664 1.76761C62.7718 1.66575 62.639 1.60788 62.5 1.60788V2.10788ZM54.6958 2.10788V1.60788C54.5563 1.60788 54.4231 1.66616 54.3285 1.76865C54.2338 1.87113 54.1863 2.0085 54.1974 2.14756L54.6958 2.10788ZM53.5396 9.41632L53.1165 9.14992L53.1165 9.14992L53.5396 9.41632ZM50.5047 12.4257L50.7492 12.8618L50.7492 12.8618L50.5047 12.4257ZM45.88 13.4288L45.8863 12.9288L45.8863 12.9288L45.88 13.4288ZM40.2436 11.7092L40.4697 11.2632L40.4657 11.2612L40.2436 11.7092ZM22.901 3.111L23.1231 2.66289L23.1116 2.65754L22.901 3.111ZM17.9872 1.39137L17.8971 1.88318L17.8971 1.88318L17.9872 1.39137ZM7.43706 2.81269L7.15611 2.39909L7.15611 2.39909L7.43706 2.81269ZM2.66786 7.98329L2.22836 7.74489L2.22836 7.74489L2.66786 7.98329ZM0.500032 19.5908L3.71798e-05 19.5931C0.00129678 19.8684 0.224783 20.0908 0.500032 20.0908V19.5908ZM51.9499 20.4389L51.8205 19.956L51.8205 19.956L51.9499 20.4389ZM56.8636 18.2894L57.1067 18.7263C57.1466 18.7041 57.1833 18.6766 57.2157 18.6444L56.8636 18.2894ZM59.465 15.7099L59.113 15.3549L59.113 15.3549L59.465 15.7099ZM61.1993 12.5572L60.734 12.3741L60.734 12.3741L61.1993 12.5572ZM62.0664 7.97159L61.5678 7.93471L61.5676 7.93725L62.0664 7.97159ZM27.2749 21.4465L36.2749 25.9831L36.7251 25.0901L27.7251 20.5535L27.2749 21.4465ZM36 25.5366V69H37V25.5366H36ZM36.5 68.5H27.5V69.5H36.5V68.5ZM28 69V21H27V69H28ZM8.01518 19.5908C8.5141 19.5579 8.5141 19.558 8.51411 19.5581C8.51411 19.5581 8.51411 19.5581 8.51411 19.5581C8.51411 19.5581 8.5141 19.558 8.51408 19.5577C8.51406 19.5573 8.51401 19.5565 8.51393 19.5554C8.51379 19.5531 8.51356 19.5493 8.51326 19.5442C8.51267 19.534 8.51178 19.5183 8.51071 19.4973C8.50857 19.4552 8.50568 19.3922 8.50287 19.3105C8.49725 19.1471 8.49191 18.9093 8.49334 18.6156C8.4962 18.0273 8.52616 17.2194 8.63391 16.3389C8.85368 14.5429 9.38189 12.5835 10.5288 11.4854L9.83718 10.7631C8.42016 12.1199 7.86447 14.3938 7.64131 16.2174C7.52761 17.1466 7.49635 17.9951 7.49335 18.6107C7.49186 18.919 7.49744 19.17 7.50346 19.3449C7.50647 19.4324 7.5096 19.5009 7.51201 19.5482C7.51321 19.5718 7.51423 19.5901 7.51498 19.6028C7.51535 19.6091 7.51565 19.614 7.51587 19.6175C7.51598 19.6193 7.51607 19.6207 7.51613 19.6217C7.51617 19.6222 7.51619 19.6227 7.51621 19.623C7.51623 19.6231 7.51624 19.6233 7.51624 19.6234C7.51625 19.6236 7.51626 19.6237 8.01518 19.5908ZM10.5288 11.4854C11.7975 10.2706 13.017 9.5478 14.3204 9.28054C15.6227 9.01352 17.0692 9.18886 18.8145 9.8811L19.1832 8.95154C17.3155 8.21075 15.666 7.98384 14.1196 8.30092C12.5743 8.61777 11.1924 9.46546 9.83718 10.7631L10.5288 11.4854ZM18.8145 9.8811C22.4067 11.3059 31.7003 16.0536 40.0276 20.0418L40.4596 19.1399C32.1938 15.1812 22.8171 10.3928 19.1832 8.95154L18.8145 9.8811ZM62.5 1.60788H54.6958V2.60788H62.5V1.60788ZM54.6958 2.10788C54.1974 2.14756 54.1974 2.1475 54.1974 2.14745C54.1974 2.14745 54.1974 2.14742 54.1974 2.14744C54.1974 2.14747 54.1974 2.14758 54.1974 2.14775C54.1974 2.14811 54.1975 2.14876 54.1976 2.14969C54.1977 2.15157 54.1979 2.15459 54.1982 2.15874C54.1988 2.16704 54.1998 2.17983 54.2009 2.1969C54.2032 2.23105 54.2065 2.28228 54.2102 2.34883C54.2175 2.48198 54.2263 2.67623 54.2323 2.9175C54.2442 3.40061 54.2443 4.06929 54.1973 4.81155C54.1018 6.3219 53.8163 8.03851 53.1165 9.14992L53.9628 9.68272C54.806 8.34347 55.0985 6.40586 55.1953 4.87466C55.2446 4.09614 55.2444 3.39721 55.232 2.8929C55.2258 2.64046 55.2165 2.43605 55.2087 2.29396C55.2048 2.2229 55.2012 2.16738 55.1986 2.12916C55.1973 2.11006 55.1963 2.09528 55.1955 2.08504C55.1951 2.07992 55.1948 2.07594 55.1946 2.07313C55.1945 2.07172 55.1944 2.0706 55.1944 2.06978C55.1943 2.06937 55.1943 2.06903 55.1943 2.06876C55.1943 2.06863 55.1943 2.06849 55.1942 2.06842C55.1942 2.0683 55.1942 2.06819 54.6958 2.10788ZM53.1165 9.14992C52.2599 10.5105 51.6271 11.2229 50.2601 11.9896L50.7492 12.8618C52.3002 11.992 53.0441 11.1418 53.9628 9.68272L53.1165 9.14992ZM50.2601 11.9896C48.7581 12.8319 47.6906 12.9518 45.8863 12.9288L45.8736 13.9288C47.7666 13.9529 49.0328 13.8244 50.7492 12.8618L50.2601 11.9896ZM45.8863 12.9288C44.8282 12.9154 43.4886 12.5136 42.3759 12.0906C41.8276 11.8822 41.3492 11.6744 41.0079 11.5188C40.8375 11.4411 40.7017 11.3766 40.6091 11.3318C40.5628 11.3094 40.5273 11.2919 40.5037 11.2802C40.492 11.2744 40.4831 11.27 40.4774 11.2671C40.4746 11.2657 40.4725 11.2646 40.4712 11.264C40.4705 11.2636 40.4701 11.2634 40.4699 11.2633C40.4697 11.2632 40.4697 11.2632 40.4696 11.2632C40.4696 11.2632 40.4696 11.2632 40.4696 11.2632C40.4697 11.2632 40.4697 11.2632 40.2436 11.7092C40.0175 12.1551 40.0175 12.1552 40.0176 12.1552C40.0177 12.1552 40.0178 12.1553 40.0179 12.1553C40.018 12.1554 40.0183 12.1555 40.0186 12.1557C40.0191 12.1559 40.0199 12.1563 40.0209 12.1568C40.0228 12.1578 40.0255 12.1592 40.029 12.1609C40.0361 12.1645 40.0463 12.1696 40.0595 12.1761C40.0858 12.1892 40.1242 12.2081 40.1736 12.2319C40.2723 12.2797 40.4149 12.3475 40.593 12.4287C40.9488 12.5909 41.4476 12.8075 42.0206 13.0254C43.1504 13.4549 44.629 13.9129 45.8736 13.9288L45.8863 12.9288ZM40.4657 11.2612L23.123 2.66303L22.6789 3.55897L40.0215 12.1571L40.4657 11.2612ZM22.901 3.111C23.1116 2.65754 23.1116 2.65752 23.1115 2.65749C23.1115 2.65747 23.1114 2.65744 23.1113 2.65741C23.1112 2.65735 23.111 2.65726 23.1108 2.65716C23.1103 2.65695 23.1097 2.65666 23.1089 2.65629C23.1073 2.65555 23.105 2.65449 23.102 2.65311C23.0961 2.65036 23.0874 2.64635 23.076 2.64117C23.0534 2.63079 23.0203 2.61568 22.9776 2.59642C22.8922 2.5579 22.7686 2.50271 22.6143 2.43547C22.3057 2.30105 21.8733 2.11801 21.3772 1.92324C20.3936 1.53705 19.1278 1.09199 18.0773 0.89955L17.8971 1.88318C18.8477 2.05732 20.0388 2.47208 21.0118 2.85407C21.494 3.04338 21.9148 3.22152 22.2149 3.35225C22.3648 3.41758 22.4844 3.47097 22.5662 3.50787C22.6071 3.52632 22.6385 3.54064 22.6595 3.55026C22.67 3.55507 22.6779 3.55871 22.683 3.5611C22.6856 3.5623 22.6875 3.56318 22.6888 3.56374C22.6894 3.56402 22.6898 3.56422 22.6901 3.56434C22.6902 3.5644 22.6903 3.56444 22.6903 3.56446C22.6903 3.56447 22.6903 3.56447 22.6903 3.56448C22.6903 3.56447 22.6903 3.56446 22.901 3.111ZM7.15611 2.39909C5.10525 3.7922 3.4152 5.55696 2.22836 7.74489L3.10737 8.2217C4.20916 6.19056 5.78305 4.54067 7.71801 3.22629L7.15611 2.39909ZM2.22836 7.74489C1.07807 9.86544 0.528869 12.8502 0.261131 15.2542C0.126198 16.4658 0.0609798 17.5482 0.0294554 18.3279C0.0136847 18.7179 0.00632538 19.0328 0.00291068 19.2508C0.00120312 19.3598 0.000481355 19.4446 0.000188141 19.5025C4.15277e-05 19.5315 2.04177e-06 19.5538 7.84873e-08 19.569C-9.03168e-07 19.5766 7.4961e-06 19.5824 1.65784e-05 19.5865C2.11196e-05 19.5885 2.58317e-05 19.59 2.96275e-05 19.5912C3.15254e-05 19.5917 3.31943e-05 19.5922 3.44983e-05 19.5925C3.51525e-05 19.5926 3.58146e-05 19.5928 3.61637e-05 19.5929C3.6724e-05 19.593 3.71798e-05 19.5931 0.500032 19.5908C1.00003 19.5885 1.00003 19.5886 1.00003 19.5886C1.00003 19.5886 1.00003 19.5885 1.00003 19.5885C1.00003 19.5883 1.00003 19.5881 1.00002 19.5877C1.00002 19.587 1.00002 19.5858 1.00001 19.5842C1.00001 19.581 0.999999 19.5759 1 19.5691C1 19.5555 1.00004 19.5349 1.00018 19.5076C1.00045 19.453 1.00114 19.3717 1.00279 19.2664C1.00609 19.0558 1.01324 18.7493 1.02864 18.3683C1.05946 17.6059 1.12326 16.5477 1.25499 15.3649C1.52057 12.9802 2.05529 10.1612 3.10737 8.2217L2.22836 7.74489ZM0.500032 20.0908H8.01518V19.0908H0.500032V20.0908ZM18.0773 0.89955C14.461 0.237074 10.4072 0.190697 7.15611 2.39909L7.71801 3.22629C10.6377 1.24297 14.3609 1.23538 17.8971 1.88318L18.0773 0.89955ZM40.0276 20.0418C42.5171 21.234 47.5308 22.1398 52.0792 20.9219L51.8205 19.956C47.5184 21.1079 42.7491 20.2364 40.4596 19.1399L40.0276 20.0418ZM52.0792 20.9219C53.1392 20.6381 54.4026 20.0834 55.383 19.6114C55.8772 19.3734 56.307 19.1527 56.6134 18.9915C56.7667 18.9108 56.8894 18.8449 56.974 18.799C57.0163 18.776 57.0491 18.7581 57.0716 18.7457C57.0828 18.7396 57.0914 18.7348 57.0973 18.7315C57.1002 18.7299 57.1025 18.7287 57.1041 18.7278C57.1049 18.7273 57.1055 18.727 57.1059 18.7268C57.1061 18.7266 57.1063 18.7265 57.1064 18.7265C57.1065 18.7264 57.1066 18.7264 57.1066 18.7264C57.1067 18.7263 57.1067 18.7263 56.8636 18.2894C56.6205 17.8525 56.6205 17.8525 56.6205 17.8525C56.6205 17.8525 56.6205 17.8525 56.6205 17.8525C56.6205 17.8525 56.6204 17.8525 56.6202 17.8526C56.62 17.8528 56.6195 17.853 56.6189 17.8533C56.6177 17.854 56.6158 17.8551 56.6132 17.8565C56.6081 17.8594 56.6002 17.8637 56.5898 17.8694C56.5689 17.8809 56.5377 17.898 56.4971 17.9201C56.4158 17.9642 56.2969 18.028 56.1477 18.1065C55.8492 18.2636 55.4303 18.4787 54.9491 18.7104C53.9788 19.1775 52.7854 19.6976 51.8205 19.956L52.0792 20.9219ZM57.2157 18.6444L59.8171 16.065L59.113 15.3549L56.5116 17.9344L57.2157 18.6444ZM59.8171 16.065C60.1621 15.7229 60.5072 15.1763 60.8144 14.6001C61.1279 14.0122 61.4247 13.3494 61.6645 12.7404L60.734 12.3741C60.5053 12.955 60.2241 13.5819 59.932 14.1296C59.6337 14.689 59.346 15.1238 59.113 15.3549L59.8171 16.065ZM61.6645 12.7404C62.0212 11.8345 62.2442 10.6395 62.3784 9.69855C62.4463 9.22252 62.4929 8.80091 62.5225 8.4981C62.5373 8.34658 62.5479 8.22449 62.5549 8.13984C62.5584 8.09751 62.5609 8.06453 62.5626 8.04188C62.5635 8.03055 62.5641 8.02181 62.5645 8.01578C62.5647 8.01276 62.5649 8.01042 62.565 8.00878C62.5651 8.00795 62.5651 8.0073 62.5652 8.00683C62.5652 8.00659 62.5652 8.0064 62.5652 8.00625C62.5652 8.00617 62.5652 8.00609 62.5652 8.00605C62.5652 8.00599 62.5652 8.00593 62.0664 7.97159C61.5676 7.93725 61.5676 7.93721 61.5676 7.93719C61.5676 7.93719 61.5676 7.93718 61.5676 7.93719C61.5676 7.93722 61.5676 7.93729 61.5676 7.9374C61.5676 7.93763 61.5675 7.93803 61.5675 7.9386C61.5674 7.93974 61.5673 7.94157 61.5671 7.94407C61.5667 7.94907 61.5662 7.95676 61.5654 7.967C61.5639 7.98749 61.5615 8.01822 61.5582 8.05818C61.5517 8.13813 61.5415 8.25496 61.5273 8.40074C61.4987 8.69255 61.4538 9.09912 61.3885 9.55735C61.2562 10.4849 61.0456 11.5827 60.734 12.3741L61.6645 12.7404ZM62.565 8.00846L62.9986 2.14475L62.0014 2.07101L61.5678 7.93472L62.565 8.00846Z" fill="#1F191D"/>
</g>
</g>
</svg>
