<svg width="135" height="129" viewBox="0 0 135 129" fill="none" xmlns="http://www.w3.org/2000/svg">
<path d="M58.6667 12.3067L57.4509 1.32564C41.1328 -3.64514 23.7319 8.69677 13.1508 22.683C7.10987 30.8102 2.11376 39.8256 7.26184 47.9528C-1.21065 55.7775 -1.21065 73.0713 7.26184 81.0473C2.11376 89.1744 7.10987 98.1899 13.1508 106.317C23.447 119.85 36.5926 128.733 50.1942 128.733C64.2517 128.733 75.5927 117.147 75.5927 103.009V92.3308C75.5927 85.1108 72.8762 81.0473 67.5761 75.4906L59.5595 66.9098C59.7115 66.1538 59.7115 65.549 59.7115 64.8119C59.7115 58.9528 55.4753 54.738 49.5863 54.738C44.0013 54.738 39.6131 58.9528 39.6131 64.8119C39.6131 70.0851 44.0013 74.4321 49.5863 74.4321C50.3462 74.4321 50.9541 74.2809 51.391 74.2809L59.7115 83.0129C62.8839 86.4717 64.4037 89.0232 64.4037 93.238V103.009C64.4037 115.2 54.4304 120.303 43.3934 116.24C35.9847 113.537 28.4241 107.961 21.4713 98.9459C15.2784 90.3651 16.6272 86.3204 20.1036 83.9012C23.124 82.1057 26.2964 82.3892 31.7485 89.1744C31.4635 90.0627 31.3116 91.1211 31.3116 92.1796C31.3116 97.7363 35.8517 102.253 41.2848 102.253C46.7178 102.253 51.106 97.7363 51.106 92.1796C51.106 86.7741 46.7178 82.2569 41.2848 82.2569H40.5249C34.0281 73.9785 26.1635 68.2706 15.2784 73.9785C11.3461 70.5198 11.954 58.1779 15.2784 55.0215C26.1635 60.7294 34.0281 55.0215 40.5249 46.7431H41.2848C46.7178 46.7431 51.106 42.226 51.106 36.8205C51.106 31.2638 46.7178 26.7466 41.2848 26.7466C35.8517 26.7466 31.3116 31.2638 31.3116 36.8205C31.3116 37.8789 31.4635 38.9184 31.7675 39.8256C26.3344 46.5919 23.143 46.8944 20.1225 45.0988C16.6462 42.6985 15.2784 38.6349 21.4903 30.0542C30.0958 18.9219 44.9131 6.75004 58.6667 12.3067ZM76.3335 116.693L77.5493 127.674C93.8674 132.645 111.268 120.303 121.849 106.317C127.89 98.1899 132.886 89.1744 127.738 81.0473C136.211 73.2225 136.211 55.9287 127.738 47.9528C132.886 39.8256 127.89 30.8102 121.849 22.683C111.553 9.15038 98.4076 0.286126 84.806 0.286126C70.7485 0.286126 59.4076 11.872 59.4076 26.0095V36.6882C59.4076 43.9081 62.1241 47.9717 67.4241 53.5284L75.4407 62.1091C75.2887 62.8651 75.2887 63.4699 75.2887 64.2071C75.2887 70.0662 79.525 74.2809 85.4139 74.2809C90.9989 74.2809 95.3871 70.0662 95.3871 64.2071C95.3871 58.9339 90.9989 54.5868 85.4139 54.5868C84.6541 54.5868 84.0462 54.738 83.6092 54.738L75.2887 46.006C72.1163 42.5473 70.5966 39.9957 70.5966 35.781V26.0095C70.5966 13.8188 80.5698 8.71567 91.6068 12.7792C99.0155 15.482 106.576 21.0576 113.529 30.0731C119.722 38.6538 118.373 42.6985 114.897 45.1177C111.876 46.9133 108.704 46.6297 103.252 39.8445C103.556 38.9373 103.708 37.8978 103.708 36.8394C103.708 31.2827 99.1675 26.7655 93.7344 26.7655C88.3014 26.7655 83.9132 31.2827 83.9132 36.8394C83.9132 42.2449 88.3014 46.7621 93.7344 46.7621H94.4943C100.991 55.0404 108.856 60.7483 119.741 55.0404C123.673 58.4992 123.065 70.8411 119.741 73.9974C108.856 68.2895 100.991 73.9974 94.4943 82.2758H93.7344C88.3014 82.2758 83.9132 86.793 83.9132 92.1984C83.9132 97.7551 88.3014 102.272 93.7344 102.272C99.1675 102.272 103.708 97.7551 103.708 92.1984C103.708 91.14 103.556 90.1005 103.252 89.1933C108.685 82.427 111.876 82.1246 114.897 83.9201C118.373 86.3205 119.741 90.384 113.529 98.9648C104.904 110.078 90.0871 122.25 76.3335 116.693Z" fill="#1F191D"/>
</svg>
